<svg width="1024" height="1024" viewBox="0 0 1024 1024" fill="none" xmlns="http://www.w3.org/2000/svg">
<rect width="1024" height="1024" fill="black"/>
<g filter="url(#filter0_d_34_5)">
<path d="M228.61 594.3C214.503 594.3 202.083 591.847 191.35 586.94C180.617 581.88 171.647 575.21 164.44 566.93C157.387 558.497 152.02 549.067 148.34 538.64C144.813 528.213 143.05 517.557 143.05 506.67C143.05 495.937 144.813 485.357 148.34 474.93C152.02 464.503 157.387 455.15 164.44 446.87C171.647 438.59 180.617 431.997 191.35 427.09C202.083 422.03 214.503 419.5 228.61 419.5C240.723 419.5 250.997 421.033 259.43 424.1C268.017 427.013 275.147 430.923 280.82 435.83C286.647 440.583 291.247 445.643 294.62 451.01C298.147 456.223 300.753 461.207 302.44 465.96C304.127 470.713 305.2 474.623 305.66 477.69C306.273 480.757 306.58 482.29 306.58 482.29H267.25C267.25 482.29 266.79 480.91 265.87 478.15C265.103 475.39 263.417 472.247 260.81 468.72C258.357 465.04 254.6 461.82 249.54 459.06C244.48 456.3 237.657 454.92 229.07 454.92C219.103 454.92 210.747 457.45 204 462.51C197.407 467.57 192.423 474.087 189.05 482.06C185.83 489.88 184.22 498.083 184.22 506.67C184.22 515.257 185.83 523.537 189.05 531.51C192.423 539.483 197.407 546 204 551.06C210.747 556.12 219.103 558.65 229.07 558.65C237.657 558.65 244.48 557.27 249.54 554.51C254.6 551.75 258.357 548.607 260.81 545.08C263.417 541.553 265.103 538.41 265.87 535.65C266.79 532.89 267.25 531.51 267.25 531.51H306.58C306.58 531.51 306.273 533.043 305.66 536.11C305.2 539.023 304.127 542.933 302.44 547.84C300.753 552.593 298.147 557.653 294.62 563.02C291.247 568.233 286.647 573.293 280.82 578.2C275.147 582.953 268.017 586.863 259.43 589.93C250.997 592.843 240.723 594.3 228.61 594.3ZM378.628 467.8C386.601 467.8 393.041 469.103 397.948 471.71C403.008 474.317 406.764 477 409.218 479.76C411.824 482.367 413.281 483.977 413.588 484.59H415.428V470.1H454.758V592H415.428V577.51H413.588C413.281 578.123 411.824 579.81 409.218 582.57C406.764 585.33 403.008 588.013 397.948 590.62C393.041 593.073 386.601 594.3 378.628 594.3C369.734 594.3 361.991 592.537 355.398 589.01C348.804 585.33 343.284 580.5 338.838 574.52C334.391 568.387 331.094 561.563 328.948 554.05C326.801 546.537 325.728 538.87 325.728 531.05C325.728 523.23 326.801 515.563 328.948 508.05C331.094 500.537 334.391 493.79 338.838 487.81C343.284 481.677 348.804 476.847 355.398 473.32C361.991 469.64 369.734 467.8 378.628 467.8ZM391.048 499.31C385.374 499.31 380.621 500.92 376.788 504.14C372.954 507.207 370.118 511.193 368.278 516.1C366.438 520.853 365.518 525.837 365.518 531.05C365.518 536.263 366.438 541.323 368.278 546.23C370.118 550.983 372.954 554.97 376.788 558.19C380.621 561.257 385.374 562.79 391.048 562.79C396.721 562.79 401.398 561.257 405.078 558.19C408.911 554.97 411.748 550.983 413.588 546.23C415.581 541.323 416.578 536.263 416.578 531.05C416.578 525.837 415.581 520.853 413.588 516.1C411.748 511.193 408.911 507.207 405.078 504.14C401.398 500.92 396.721 499.31 391.048 499.31ZM558.716 594.3C550.896 594.3 544.456 592.997 539.396 590.39C534.336 587.783 530.579 585.177 528.126 582.57C525.672 579.81 524.292 578.123 523.986 577.51H522.146V592H482.816V417.2H522.146V484.59H523.986C524.292 483.977 525.672 482.29 528.126 479.53C530.579 476.77 534.336 474.163 539.396 471.71C544.456 469.103 550.896 467.8 558.716 467.8C567.762 467.8 575.582 469.64 582.176 473.32C588.769 476.847 594.212 481.677 598.506 487.81C602.952 493.79 606.249 500.537 608.396 508.05C610.696 515.563 611.846 523.23 611.846 531.05C611.846 538.87 610.696 546.537 608.396 554.05C606.249 561.563 602.952 568.387 598.506 574.52C594.212 580.5 588.769 585.33 582.176 589.01C575.582 592.537 567.762 594.3 558.716 594.3ZM546.526 562.79C552.199 562.79 556.952 561.257 560.786 558.19C564.619 554.97 567.456 550.983 569.296 546.23C571.136 541.323 572.056 536.263 572.056 531.05C572.056 525.837 571.136 520.853 569.296 516.1C567.456 511.193 564.619 507.207 560.786 504.14C556.952 500.92 552.199 499.31 546.526 499.31C540.852 499.31 536.099 500.92 532.266 504.14C528.432 507.207 525.596 511.193 523.756 516.1C521.916 520.853 520.996 525.837 520.996 531.05C520.996 536.263 521.916 541.323 523.756 546.23C525.596 550.983 528.432 554.97 532.266 558.19C536.099 561.257 540.852 562.79 546.526 562.79ZM652.982 593.84C647.768 593.84 642.862 592.997 638.262 591.31C633.662 589.47 629.982 586.557 627.222 582.57C624.462 578.583 623.082 573.37 623.082 566.93C623.082 562.483 624.155 559.263 626.302 557.27C628.602 555.123 630.978 554.05 633.432 554.05C635.885 554.05 638.032 554.893 639.872 556.58C641.865 558.113 642.862 560.337 642.862 563.25C642.862 564.783 642.478 566.163 641.712 567.39C641.098 568.463 640.408 569.46 639.642 570.38C638.722 571.453 637.802 572.527 636.882 573.6C636.115 574.52 635.732 575.747 635.732 577.28C635.732 580.96 637.265 583.797 640.332 585.79C643.552 587.63 647.615 588.55 652.522 588.55C657.735 588.55 662.258 587.093 666.092 584.18C670.078 581.113 672.072 576.283 672.072 569.69C672.072 564.783 670.845 560.337 668.392 556.35C666.092 552.363 663.408 548.453 660.342 544.62C657.275 540.48 654.362 536.187 651.602 531.74C648.995 527.293 647.692 522.233 647.692 516.56C647.692 511.04 649.148 506.517 652.062 502.99C655.128 499.31 658.962 496.627 663.562 494.94C668.162 493.1 672.915 492.18 677.822 492.18C684.262 492.18 690.012 493.713 695.072 496.78C700.285 499.847 702.892 504.37 702.892 510.35C702.892 513.57 702.202 516.1 700.822 517.94C699.595 519.627 697.525 520.47 694.612 520.47C691.698 520.47 689.552 519.703 688.172 518.17C686.945 516.637 686.332 514.72 686.332 512.42C686.332 512.113 686.332 511.73 686.332 511.27C686.485 510.657 686.638 510.043 686.792 509.43C686.945 508.97 687.022 508.51 687.022 508.05C687.175 507.437 687.252 506.977 687.252 506.67C687.252 503.603 686.102 501.303 683.802 499.77C681.502 498.083 678.818 497.24 675.752 497.24C672.225 497.24 668.852 498.467 665.632 500.92C662.412 503.373 660.802 507.207 660.802 512.42C660.802 516.867 662.028 521.007 664.482 524.84C666.935 528.673 669.618 532.507 672.532 536.34C675.752 540.48 678.742 544.85 681.502 549.45C684.262 554.05 685.642 559.417 685.642 565.55C685.642 571.683 684.032 576.897 680.812 581.19C677.592 585.33 673.452 588.473 668.392 590.62C663.485 592.767 658.348 593.84 652.982 593.84ZM722.052 593.84C718.218 593.84 715.382 592.383 713.542 589.47C711.702 586.403 711.548 582.8 713.082 578.66L744.132 500.46H726.882L729.412 494.02H747.122L754.482 475.62L770.352 473.55L762.072 494.02H780.932L778.402 500.46H759.542L730.102 573.83C729.028 576.743 728.798 578.89 729.412 580.27C730.025 581.65 731.022 582.34 732.402 582.34C734.088 582.34 736.388 581.113 739.302 578.66C742.215 576.053 745.512 572.45 749.192 567.85C753.025 563.097 757.012 557.577 761.152 551.29L764.832 553.59C755.018 568.463 746.892 578.89 740.452 584.87C734.012 590.85 727.878 593.84 722.052 593.84ZM790.985 593.84C787.152 593.84 783.702 592.613 780.635 590.16C777.722 587.553 776.265 582.8 776.265 575.9C776.265 570.073 777.722 563.863 780.635 557.27C783.548 550.677 787.382 544.007 792.135 537.26C797.042 530.513 802.332 524.073 808.005 517.94C815.212 510.273 822.878 504.063 831.005 499.31C839.285 494.557 846.645 492.18 853.085 492.18C856.152 492.18 858.682 492.717 860.675 493.79C862.668 494.71 864.278 496.013 865.505 497.7H865.965L878.385 488.73H880.685L846.875 572.45C845.495 575.823 845.112 578.277 845.725 579.81C846.338 581.343 847.182 582.11 848.255 582.11C850.095 582.11 852.548 580.883 855.615 578.43C858.682 575.977 862.208 572.45 866.195 567.85C870.182 563.25 874.322 557.653 878.615 551.06L882.295 553.36C872.788 568.233 864.585 578.66 857.685 584.64C850.785 590.62 845.112 593.61 840.665 593.61C837.752 593.61 835.375 592.307 833.535 589.7C831.695 586.94 831.772 582.723 833.765 577.05L838.595 563.71H837.215C833.535 568.617 829.165 573.37 824.105 577.97C819.045 582.57 813.602 586.403 807.775 589.47C802.102 592.383 796.505 593.84 790.985 593.84ZM803.405 581.88C807.392 581.88 811.685 580.27 816.285 577.05C820.885 573.83 825.408 569.613 829.855 564.4C834.455 559.187 838.595 553.513 842.275 547.38C845.955 541.247 848.868 535.267 851.015 529.44C853.315 523.46 854.465 518.323 854.465 514.03C854.465 510.197 853.622 507.36 851.935 505.52C850.248 503.527 847.565 502.53 843.885 502.53C839.898 502.53 835.298 503.987 830.085 506.9C825.025 509.66 819.965 513.8 814.905 519.32C808.618 526.067 803.482 533.733 799.495 542.32C795.508 550.907 793.515 559.647 793.515 568.54C793.515 573.293 794.435 576.743 796.275 578.89C798.115 580.883 800.492 581.88 803.405 581.88Z" fill="white"/>
</g>
<defs>
<filter id="filter0_d_34_5" x="123.05" y="417.2" width="779.245" height="217.1" filterUnits="userSpaceOnUse" color-interpolation-filters="sRGB">
<feFlood flood-opacity="0" result="BackgroundImageFix"/>
<feColorMatrix in="SourceAlpha" type="matrix" values="0 0 0 0 0 0 0 0 0 0 0 0 0 0 0 0 0 0 127 0" result="hardAlpha"/>
<feOffset dy="20"/>
<feGaussianBlur stdDeviation="10"/>
<feComposite in2="hardAlpha" operator="out"/>
<feColorMatrix type="matrix" values="0 0 0 0 0 0 0 0 0 0 0 0 0 0 0 0 0 0 0.25 0"/>
<feBlend mode="normal" in2="BackgroundImageFix" result="effect1_dropShadow_34_5"/>
<feBlend mode="normal" in="SourceGraphic" in2="effect1_dropShadow_34_5" result="shape"/>
</filter>
</defs>
</svg>
